<svg id="Layer_1" data-name="Layer 1" xmlns="http://www.w3.org/2000/svg" viewBox="0 0 792 423.58"><defs><style>.cls-1{fill:#00549a;}.cls-2{fill:#fff;}.cls-3{fill:#193661;}.cls-4{fill:#6190b2;}</style></defs><title>Composite_horizontal_Bell-Argos</title><path d="M528.45,293.57h-3v7.58h-2.22v-16a3.84,3.84,0,0,1,3.27-4,6.75,6.75,0,0,1,1.36-.11h1.28a10.81,10.81,0,0,1,1.48.08,5.8,5.8,0,0,1,5.08,5.94,6.12,6.12,0,0,1-5,6.25A10.19,10.19,0,0,1,528.45,293.57Zm.94-10.54H528a4.34,4.34,0,0,0-1.1.11,1.78,1.78,0,0,0-1.42,1.93v6.51h3.09a8.77,8.77,0,0,0,1.59-.11,4,4,0,0,0,3.38-4.32,4,4,0,0,0-3.09-4A6.3,6.3,0,0,0,529.39,283Z"/><path d="M548.7,288.88l-1.45,1.33a3.89,3.89,0,0,0-2.93-1.1,5,5,0,0,0-2.07.34,1.55,1.55,0,0,0-1.08,1.73v10H539V290.61c0-2.5,3-3.38,5.14-3.38A5.59,5.59,0,0,1,548.7,288.88Z"/><path d="M563.94,294.28a7,7,0,1,1-7-7.07A6.83,6.83,0,0,1,563.94,294.28Zm-2.15,0a5,5,0,0,0-4.89-5.2c-3,0-4.83,2.36-4.83,5.2s1.79,5.25,4.83,5.25S561.79,297.26,561.79,294.25Z"/><path d="M577.26,299.13V287.58h2.15v12.95a15.15,15.15,0,0,1-5.42,1c-4.32,0-6.37-2-6.37-5.51v-8.4h2.17V296c0,2.07,1,3.6,4.31,3.6A13.41,13.41,0,0,0,577.26,299.13Z"/><path d="M596.68,301.15h-2v-.34c0-.59-.51-.42-.88-.28a10.56,10.56,0,0,1-3.67.79c-4.37,0-6.73-3-6.73-7.07a6.72,6.72,0,0,1,6.88-7.07,6.27,6.27,0,0,1,4.4,1.53V281h2Zm-6.34-12.1c-3.09,0-4.8,2.28-4.8,5.17s1.51,5.26,4.72,5.26a6.94,6.94,0,0,0,4.29-1.37v-5.22A3.87,3.87,0,0,0,590.34,289.05Z"/><path d="M614.59,293.57h-3v7.58h-2.21v-16a3.84,3.84,0,0,1,3.27-4,6.69,6.69,0,0,1,1.36-.11h1.28a10.57,10.57,0,0,1,1.47.08,5.8,5.8,0,0,1,5.09,5.94,6.12,6.12,0,0,1-5,6.25A10.31,10.31,0,0,1,614.59,293.57Zm.94-10.54h-1.37a4.47,4.47,0,0,0-1.11.11,1.78,1.78,0,0,0-1.42,1.93v6.51h3.1a8.77,8.77,0,0,0,1.59-.11,4,4,0,0,0,3.38-4.32,4,4,0,0,0-3.1-4A6.18,6.18,0,0,0,615.53,283Z"/><path d="M637.87,287.58v13.57H636c-.12-.42-.26-.56-.57-.56a16.9,16.9,0,0,1-4,.76c-4.2,0-6.93-2.64-6.93-6.85,0-4,2.59-7.27,7.08-7.27a5.67,5.67,0,0,1,4.34,1.68v-1.33Zm-11.19,6.87c0,3,1.68,5.05,4.94,5.05a9.53,9.53,0,0,0,4.15-1.1v-5.23a4,4,0,0,0-4.17-4.09C628.33,289.08,626.68,291.5,626.68,294.45Z"/><path d="M652.18,288.88l-1.45,1.33a3.89,3.89,0,0,0-2.93-1.1,5,5,0,0,0-2.07.34,1.55,1.55,0,0,0-1.08,1.73v10h-2.16V290.61c0-2.5,3-3.38,5.14-3.38A5.58,5.58,0,0,1,652.18,288.88Z"/><path d="M654.39,296.92v-13h2.16v3.64h4.54v2h-4.54v7.22a2.38,2.38,0,0,0,2.58,2.61,9.07,9.07,0,0,0,3-.57v1.85a8,8,0,0,1-3.29.63A4.05,4.05,0,0,1,654.39,296.92Z"/><path d="M674.66,292.86c0-2.47-1.3-3.67-4-3.67a7.66,7.66,0,0,0-3.67,1v10.94h-2.18v-12a10.75,10.75,0,0,1,6-1.9c3.81,0,6.11,1.62,6.11,5.2v8.66h-2.22Z"/><path d="M687.78,299.53a7.61,7.61,0,0,0,4.63-1.5l.93,1.62a8.92,8.92,0,0,1-5.7,1.76c-4.46,0-7-3-7-7.1s2.72-7.1,6.67-7.1a6.1,6.1,0,0,1,6.42,6.1s.09,1.05.09,1.45h-11C683,297.6,684.68,299.53,687.78,299.53ZM682.92,293h8.58c-.34-2.3-1.65-4-4.18-4A4.48,4.48,0,0,0,682.92,293Z"/><path d="M707.28,288.88l-1.45,1.33a3.87,3.87,0,0,0-2.92-1.1,5.09,5.09,0,0,0-2.08.34,1.54,1.54,0,0,0-1.07,1.73v10H697.6V290.61c0-2.5,3-3.38,5.14-3.38A5.56,5.56,0,0,1,707.28,288.88Z"/><path class="cls-1" d="M672,120.56h22.64v131H672V216.89H611.61c.61,9.42,7.43,19.2,22.9,19.26a33.54,33.54,0,0,0,20.39-6.56l10.86,12.77c-7.59,6.84-18.69,11.29-34.06,11.29-12.48,0-24.88-3.68-33.43-13.08a39.47,39.47,0,0,1-9.06-18.17c-4.87,16.79-20.05,28-42.26,28.85-7,.28-14.53.32-22.23.29-8.66,0-17.53,0-26.17,0V119.9H529c15.61,0,28.25,1.62,37.54,9.51a29.66,29.66,0,0,1,10.11,22.73,29.34,29.34,0,0,1-12.52,24.35c10.92,3.39,21.25,11.43,25.12,23.37,4.31-16.92,18.82-33,42.45-33,15.19,0,26.41,5.78,33.35,14.93A37,37,0,0,1,672,197.12ZM521.8,172.35h7.42a46.85,46.85,0,0,0,9-.64c12-2.46,14.24-11.46,14.23-17.2,0-6.76-3.24-12.18-10.06-14.83-3.46-1.35-8.25-2-14.33-2H521.8Zm44,38.87c0-9.83-5.95-17.24-16.29-20A58.89,58.89,0,0,0,536.55,190H521.8v43h16.48a53.87,53.87,0,0,0,9.12-.63c12.9-2.32,18.37-10.89,18.37-21.05m85-10.69C649,190.22,642,184,631.55,184S614,190.94,612,200.53Z"/><rect class="cls-1" x="709.77" y="120.55" width="22.24" height="130.98"/><polyline points="440.22 59.84 440.22 361.14 437.81 361.14 437.81 59.84"/><path class="cls-2" d="M361.81,212c0-83.57-68-151.56-151.57-151.56S58.68,128.43,58.68,212s68,151.56,151.56,151.56,151.57-68,151.57-151.56M210.24,358.81A146.81,146.81,0,1,1,357.05,212,146.81,146.81,0,0,1,210.24,358.81Z"/><path class="cls-2" d="M256.27,156.47H265V104.34H155.5v52.13h8.72L130.43,262.6H109.1v52.09h84.7V262.6h-9.16l1.65-5.19H234.2l1.65,5.19h-9.16v52.09h84.7V262.6H290.06L256.27,156.47m50.36,153.46H231.45V267.36h10.91l-4.68-14.71H182.81l-4.68,14.71H189v42.57H113.85V267.36h20.06l36.81-115.64H160.26V109.1h100v42.62H249.77l36.81,115.64h20.05Z"/><path class="cls-2" d="M196.38,210h27.73l-13.87-43.55L196.38,210m6.5-4.76,7.36-23.11,7.37,23.11Z"/><path class="cls-2" d="M230.08,137.33h15.76V123.49H174.65v13.84h15.76l-46,144.42H128.25v13.79h46.4V281.75h-16.2l13.84-43.49H248.2L262,281.75h-16.2v13.79h46.4V281.75H276.06l-46-144.42M176.7,224.42l27.73-87.09h11.64l27.72,87.09Z"/><polygon class="cls-3" points="316.79 326.94 319.81 326.94 319.81 336.06 320.9 336.06 320.9 326.94 324.09 326.94 324.09 325.84 316.79 325.84 316.79 326.94"/><polygon class="cls-3" points="329.93 334.15 327.31 325.84 325.55 325.84 325.55 336.06 326.64 336.06 326.64 327.38 329.38 336.06 330.48 336.06 333.21 327.38 333.21 336.06 334.31 336.06 334.31 325.84 332.55 325.84 329.93 334.15"/><path class="cls-4" d="M210.24,325.41a113,113,0,0,1-48.15-10.72H118.25a137.81,137.81,0,0,0,184,0H258.4a113.05,113.05,0,0,1-48.16,10.72m-42.14,5.14a6.43,6.43,0,1,1-3.48-8.41,6.43,6.43,0,0,1,3.48,8.41m42.14,13.54a6.44,6.44,0,1,1,6.44-6.44,6.44,6.44,0,0,1-6.44,6.44m54-18.47a6.43,6.43,0,1,1-8.4-3.48A6.44,6.44,0,0,1,264.27,325.62Z"/><path class="cls-4" d="M311.39,305.68a137.89,137.89,0,1,0-202.29,0v-42.4a113.38,113.38,0,0,1,46.4-150.61v-8.33h19.09a113.42,113.42,0,0,1,71.31,0H265v8.33a113.38,113.38,0,0,1,46.4,150.61v42.4M78.16,212a6.44,6.44,0,1,1,6.44,6.43A6.43,6.43,0,0,1,78.16,212m22,45.62a6.44,6.44,0,1,1-8.41-3.48,6.44,6.44,0,0,1,8.41,3.48m0-91.24A6.44,6.44,0,1,1,96.62,158a6.44,6.44,0,0,1,3.49,8.41M126,127.7a6.43,6.43,0,1,1,0-9.09,6.44,6.44,0,0,1,0,9.09m38.67-25.84a6.43,6.43,0,1,1,3.48-8.4,6.43,6.43,0,0,1-3.48,8.4m45.62-9.07a6.44,6.44,0,1,1,6.44-6.44,6.44,6.44,0,0,1-6.44,6.44m54,5.59A6.43,6.43,0,1,1,260.79,90a6.43,6.43,0,0,1,3.48,8.41m39.37,29.32a6.43,6.43,0,1,1,0-9.09,6.42,6.42,0,0,1,0,9.09M342.33,212a6.44,6.44,0,1,1-6.44-6.43,6.43,6.43,0,0,1,6.44,6.43m-21.95-45.62a6.44,6.44,0,1,1,8.41,3.48,6.44,6.44,0,0,1-8.41-3.48m0,91.24a6.44,6.44,0,1,1,3.48,8.41A6.44,6.44,0,0,1,320.38,257.62Z"/><polygon class="cls-3" points="202.88 205.27 217.6 205.27 210.25 182.16 202.88 205.27"/><path class="cls-3" d="M126,127.7a6.43,6.43,0,1,0-9.1,0A6.43,6.43,0,0,0,126,127.7Z"/><path class="cls-3" d="M210.24,92.79a6.44,6.44,0,1,0-6.43-6.44A6.44,6.44,0,0,0,210.24,92.79Z"/><path class="cls-3" d="M164.62,101.86a6.43,6.43,0,1,0-8.4-3.48A6.42,6.42,0,0,0,164.62,101.86Z"/><path class="cls-3" d="M91.7,169.86a6.43,6.43,0,1,0-3.48-8.41A6.44,6.44,0,0,0,91.7,169.86Z"/><path class="cls-3" d="M91.7,254.14a6.43,6.43,0,1,0,8.41,3.48A6.44,6.44,0,0,0,91.7,254.14Z"/><path class="cls-3" d="M328.79,169.86a6.44,6.44,0,1,0-8.41-3.48A6.44,6.44,0,0,0,328.79,169.86Z"/><path class="cls-3" d="M210.24,65.2A146.81,146.81,0,1,0,357.05,212,146.8,146.8,0,0,0,210.24,65.2M311.39,305.68v9h-9.15a137.81,137.81,0,0,1-184,0H109.1v-9a137.89,137.89,0,1,1,202.29,0Z"/><path class="cls-3" d="M91,212a6.44,6.44,0,1,0-6.43,6.43A6.43,6.43,0,0,0,91,212Z"/><path class="cls-3" d="M255.87,101.86a6.43,6.43,0,1,0-3.49-8.4A6.43,6.43,0,0,0,255.87,101.86Z"/><path class="cls-3" d="M303.64,127.7a6.43,6.43,0,1,0-9.1,0A6.43,6.43,0,0,0,303.64,127.7Z"/><path class="cls-3" d="M328.79,254.14a6.44,6.44,0,1,0,3.48,8.41A6.44,6.44,0,0,0,328.79,254.14Z"/><path class="cls-3" d="M335.89,205.57a6.43,6.43,0,1,0,6.44,6.43A6.43,6.43,0,0,0,335.89,205.57Z"/><path class="cls-3" d="M210.24,98.59a113.31,113.31,0,0,0-35.65,5.75H245.9A113.37,113.37,0,0,0,210.24,98.59Z"/><path class="cls-3" d="M164.62,322.14a6.43,6.43,0,1,0,3.48,8.41A6.43,6.43,0,0,0,164.62,322.14Z"/><path class="cls-3" d="M255.87,322.14a6.43,6.43,0,1,0,8.4,3.48A6.43,6.43,0,0,0,255.87,322.14Z"/><path class="cls-3" d="M164.22,156.47H155.5v-43.8a113.38,113.38,0,0,0-46.4,150.61v-.68h21.33Z"/><path class="cls-3" d="M210.24,331.22a6.44,6.44,0,1,0,6.44,6.43A6.43,6.43,0,0,0,210.24,331.22Z"/><path class="cls-3" d="M323.66,212A113.38,113.38,0,0,0,265,112.67v43.8h-8.72L290.06,262.6h21.33v.68A113,113,0,0,0,323.66,212Z"/><path class="cls-3" d="M162.09,314.69a113.52,113.52,0,0,0,96.31,0H226.69V262.6h9.16l-1.65-5.19H186.29l-1.65,5.19h9.16v52.09Z"/><path class="cls-3" d="M204.43,137.33,176.7,224.42h67.09l-27.72-87.09H204.43M196.38,210l13.86-43.55L224.11,210Z"/><path class="cls-3" d="M249.77,151.72h10.46V109.1h-100v42.62h10.46L133.91,267.36H113.85v42.57H189V267.36H178.13l4.68-14.71h54.87l4.68,14.71H231.45v42.57h75.18V267.36H286.58L249.77,151.72m42.47,143.82h-46.4V281.75H262L248.2,238.26H172.29l-13.84,43.49h16.2v13.79h-46.4V281.75h16.18l46-144.42H174.65V123.49h71.19v13.84H230.08l46,144.42h16.18Z"/></svg>